# xmcd
#
# Track frame offsets:
#	150
#	12290
#	24154
#	36883
#	50025
#	61638
#	74056
#	86356
#	99124
#	111341
#	124087
#	136794
#	149783
#	163080
#	176283
#	189885
#	202576
#	215768
#	227725
#	238494
#	250709
#	263090
#	275603
#	288216
#
# Disc length: 4004 seconds
# Revision: 0
# Processed by: cddbd v1.5.2PL0 Copyright (c) Steve Scherf et al.
# Submitted via: dBpowerAMP V12.0
#
DISCID=540fa218
DTITLE=Lester Flatt and Earl Scruggs - Flatt and Scruggs: Selected Sides 1950-1952, Disc 2 of 2
DYEAR=2004
DGENRE=Country
TTITLE0=Come Back Darling
TTITLE1=I'm Head Over Heels in Love
TTITLE2=I'm Waiting to Hear You Call Me Darling
TTITLE3=The Old Home Town
TTITLE4=I'll Stay Around
TTITLE5=We Can't Be Darlings Anymore
TTITLE6=Jimmie Brown the Newsboy
TTITLE7=Somehow Tonight
TTITLE8=Don't Get Above Your Raising
TTITLE9=I'm Working on a Road
TTITLE10=He Took Your Place
TTITLE11=I've Lost You
TTITLE12=Tis Sweet to Be Remembered
TTITLE13=I'm Gonna Settle Down
TTITLE14=Earl's Breakdown
TTITLE15=I'm Lonesome and Blue
TTITLE16=Over the Hills to the Poorhouse
TTITLE17=My Darling's Last Goodbye
TTITLE18=Get in Line Brothers
TTITLE19=Brother, I'm Getting Ready to Go
TTITLE20=Why Did You Wander?
TTITLE21=Flint Hill Special
TTITLE22=Thinking About You
TTITLE23=If I Should Wander Back to You
EXTD=
EXTT0=
EXTT1=
EXTT2=
EXTT3=
EXTT4=
EXTT5=
EXTT6=
EXTT7=
EXTT8=
EXTT9=
EXTT10=
EXTT11=
EXTT12=
EXTT13=
EXTT14=
EXTT15=
EXTT16=
EXTT17=
EXTT18=
EXTT19=
EXTT20=
EXTT21=
EXTT22=
EXTT23=
PLAYORDER=
